<?xml version="1.0" standalone="no"?><svg xmlns="http://www.w3.org/2000/svg" viewBox="0 0 1440 320"><path fill="#D2EE79" fill-opacity="1" d="M0,224L21.8,197.3C43.6,171,87,117,131,122.7C174.5,128,218,192,262,186.7C305.5,181,349,107,393,80C436.4,53,480,75,524,112C567.3,149,611,203,655,234.7C698.2,267,742,277,785,272C829.1,267,873,245,916,197.3C960,149,1004,75,1047,64C1090.9,53,1135,107,1178,160C1221.8,213,1265,267,1309,288C1352.7,309,1396,299,1418,293.3L1440,288L1440,0L1418.2,0C1396.4,0,1353,0,1309,0C1265.5,0,1222,0,1178,0C1134.5,0,1091,0,1047,0C1003.6,0,960,0,916,0C872.7,0,829,0,785,0C741.8,0,698,0,655,0C610.9,0,567,0,524,0C480,0,436,0,393,0C349.1,0,305,0,262,0C218.2,0,175,0,131,0C87.3,0,44,0,22,0L0,0Z"></path></svg>